<?xml version="1.0" encoding="utf-8"?>
<!-- Generator: Adobe Illustrator 24.1.2, SVG Export Plug-In . SVG Version: 6.00 Build 0)  -->
<svg version="1.1" id="Layer_1" xmlns="http://www.w3.org/2000/svg" xmlns:xlink="http://www.w3.org/1999/xlink" x="0px" y="0px"
	 viewBox="0 0 595.3 219.9" style="enable-background:new 0 0 595.3 219.9;" xml:space="preserve">
<style type="text/css">
	.st0{display:none;}
	.st1{display:inline;stroke:#000000;stroke-miterlimit:10;}
	.st2{display:inline;fill:none;stroke:#000000;stroke-miterlimit:10;}
	.st3{display:inline;fill:none;}
	.st4{stroke:#000000;stroke-miterlimit:10;}
	.st5{fill:none;stroke:#000000;stroke-miterlimit:10;}
	.st6{fill:none;}
	.st7{font-family:'OpenSansSemiCondensed-Regular';}
	.st8{font-size:50px;}
	.st9{font-family:'OpenSansSemiCondensed-Bold';}
	.st10{font-size:80px;}
	.st11{letter-spacing:2;}
</style>
<g id="Layer_1_1_" class="st0">
</g>
<g class="st0">
	<path class="st1" d="M-206.8,448.4H-106c-26.2,24.6-61.6,39.7-100.5,39.7s-74.3-15.1-100.5-39.7h100.1v-0.5h0.1L-206.8,448.4
		L-206.8,448.4z"/>
	<path class="st1" d="M-60.1,342.5c0,17.3-3,33.9-8.6,49.3h-55.4c4.3-20.5,8.6-41.1,12.9-61.6c-4.2,4.8-10.1,10.5-17.9,15.9
		c-5.3,3.7-10.4,6.4-14.9,8.3c3.2,9.1-1.7,18.9-10,21.6c-9.3,3.1-19.8-3.7-21-12.6c-0.8-5.8,2.5-11.9,8.3-15.5
		c-6.6-3.9-17-11.2-25.7-23.7c-13.5-19.4-14.7-39.3-14.7-47.3v0.1c0,0,0,0,0,0v-0.1c-0.1,8.8-1.7,34.6-20.9,55.6
		c-6.6,7.3-13.7,12.1-19.6,15.4c5.9,4.2,8.9,10.8,7.7,16.7c-2,9.6-15,15.7-23.9,10.6c-6.3-3.6-9.4-12.4-6.6-20.7
		c-4.5-2-9.6-4.7-14.9-8.3c-7.9-5.4-13.7-11.1-17.9-15.9c4.3,20.5,8.6,41.1,12.9,61.6h-53.9c-5.6-15.4-8.6-32-8.6-49.3
		c0-80.4,65.5-145.5,146.4-145.5S-60.1,262.1-60.1,342.5z"/>
	<path class="st2" d="M-207.4,297.6c-3.7,22.7-7.4,45.4-11.2,68c3.6,7.1,7.2,14.3,10.8,21.4c3.5-7,6.9-14,10.4-21
		C-200.7,343.2-204,320.4-207.4,297.6z M-215,364.7c2.5-20.4,5.1-40.7,7.6-61.1c2.3,20.3,4.6,40.7,6.9,61
		c-2.4,5.9-4.8,11.7-7.2,17.6C-210.1,376.4-212.5,370.6-215,364.7z"/>
	<path class="st2" d="M-200.4,364.7c-2.4,5.9-4.8,11.7-7.2,17.6c-2.4-5.9-4.9-11.7-7.3-17.6c2.5-20.4,5.1-40.7,7.6-61.1
		C-205.1,324-202.8,344.3-200.4,364.7z"/>
	<path class="st2" d="M-200.4,364.7c-2.4,5.9-4.8,11.7-7.2,17.6c-2.4-5.9-4.9-11.7-7.3-17.6c2.5-20.4,5.1-40.7,7.6-61.1
		C-205.1,324-202.8,344.3-200.4,364.7z"/>
	<rect x="-374.7" y="411.5" class="st3" width="347.9" height="27.3"/>
	<text transform="matrix(1 0 0 1 -307.7759 431.3368)" style="display:inline; font-family:'BodoniMT'; font-size:30px;">CROWNTEENS </text>
</g>
<g>
	<path class="st4" d="M112.5,175.8h62.9c-16.4,15.4-38.5,24.8-62.8,24.8s-46.4-9.4-62.8-24.8H112.5l-0.1-0.3h0.1
		C112.5,175.5,112.5,175.8,112.5,175.8z"/>
	<path class="st4" d="M204.2,109.7c0,10.8-1.9,21.2-5.4,30.8h-34.6c2.7-12.8,5.4-25.7,8.1-38.5c-2.6,3-6.3,6.6-11.2,9.9
		c-3.3,2.3-6.5,4-9.3,5.2c2,5.7-1.1,11.8-6.3,13.5c-5.8,1.9-12.4-2.3-13.1-7.9c-0.5-3.6,1.6-7.4,5.2-9.7c-4.1-2.4-10.6-7-16.1-14.8
		c-8.4-12.1-9.2-24.5-9.2-29.5v0.1c0,0,0,0,0,0v-0.1c-0.1,5.5-1.1,21.6-13,34.7c-4.1,4.5-8.5,7.6-12.2,9.6c3.7,2.6,5.6,6.7,4.8,10.4
		c-1.3,6-9.4,9.8-14.9,6.6c-3.9-2.3-5.9-7.8-4.1-13c-2.8-1.2-6-2.9-9.3-5.2c-4.9-3.4-8.6-6.9-11.2-9.9c2.7,12.8,5.4,25.7,8.1,38.5
		H26.5c-3.5-9.6-5.4-20-5.4-30.8c0-50.2,41-90.9,91.5-90.9S204.2,59.4,204.2,109.7z"/>
	<path class="st5" d="M112.1,81.6c-2.3,14.2-4.7,28.3-7,42.5c2.3,4.5,4.5,8.9,6.8,13.4c2.2-4.4,4.3-8.8,6.5-13.1
		C116.3,110.1,114.2,95.8,112.1,81.6z M107.4,123.6c1.6-12.7,3.2-25.5,4.7-38.2c1.4,12.7,2.9,25.4,4.3,38.1c-1.5,3.7-3,7.3-4.5,11
		C110.4,130.9,108.9,127.2,107.4,123.6z"/>
	<path class="st5" d="M116.5,123.5c-1.5,3.7-3,7.3-4.5,11c-1.5-3.7-3.1-7.3-4.6-11c1.6-12.7,3.2-25.5,4.7-38.2
		C113.6,98.1,115,110.8,116.5,123.5z"/>
	<path class="st5" d="M116.5,123.5c-1.5,3.7-3,7.3-4.5,11c-1.5-3.7-3.1-7.3-4.6-11c1.6-12.7,3.2-25.5,4.7-38.2
		C113.6,98.1,115,110.8,116.5,123.5z"/>
</g>
<rect x="218.4" y="68.2" class="st6" width="343.3" height="147"/>
<text transform="matrix(1 0 0 1 235.7315 89.1598)" class="st7 st8">CROWNTEENS </text>
<text transform="matrix(1 0 0 1 236.0115 159.1598)" class="st9 st10 st11">ROYALE</text>
</svg>
