<?xml version="1.0" encoding="utf-8"?>
<!-- Generator: Adobe Illustrator 24.1.2, SVG Export Plug-In . SVG Version: 6.00 Build 0)  -->
<svg version="1.1" id="Layer_1" xmlns="http://www.w3.org/2000/svg" xmlns:xlink="http://www.w3.org/1999/xlink" x="0px" y="0px"
	 viewBox="0 0 595.3 594.9" style="enable-background:new 0 0 595.3 594.9;" xml:space="preserve">
<style type="text/css">
	.st0{display:none;}
	.st1{stroke:#000000;stroke-miterlimit:10;}
	.st2{fill:none;stroke:#000000;stroke-miterlimit:10;}
	.st3{fill:none;}
	.st4{font-family:'BullettoKilla';}
	.st5{font-size:61.2959px;}
</style>
<g id="Layer_1_1_" class="st0">
	
		<image style="display:inline;overflow:visible;enable-background:new    ;" width="619" height="622" xlink:href="7A47F0B9.png"  transform="matrix(0.75 0 0 0.75 34.875 137.75)">
	</image>
</g>
<g id="Layer_2_1_">
	<g>
		<path class="st1" d="M300.7,501H493c-50.1,46.9-117.6,75.7-191.9,75.7S159.4,547.9,109.3,501h191.2v-0.9h0.2V501z"/>
		<path class="st1" d="M580.8,298.8c0,33-5.8,64.7-16.4,94.1H458.5c8.2-39.2,16.4-78.5,24.6-117.7c-8,9.2-19.3,20.1-34.3,30.4
			c-10.2,7-20,12.1-28.5,15.9c6.1,17.4-3.3,36-19.2,41.3c-17.8,5.8-37.8-7.1-40-24.1c-1.5-11.1,4.9-22.7,15.8-29.7
			c-12.5-7.4-32.4-21.4-49.1-45.3c-25.8-37-28.1-75-28.1-90.2v0.2c0,0,0,0-0.1,0v-0.2c-0.2,16.9-3.2,66-39.9,106.2
			c-12.6,13.8-26.1,23.2-37.3,29.4c11.2,8,17,20.6,14.7,31.9c-3.8,18.3-28.7,30-45.6,20.3c-12.1-7-18-23.7-12.5-39.6
			c-8.5-3.8-18.3-8.9-28.5-15.9c-15-10.2-26.2-21.2-34.3-30.4c8.2,39.2,16.4,78.5,24.6,117.7H38c-10.6-29.4-16.4-61.1-16.4-94.1
			c0-153.5,125.2-277.9,279.6-277.9S580.8,145.3,580.8,298.8z"/>
		<path class="st2" d="M299.5,213c-7.1,43.3-14.2,86.6-21.4,129.9c6.9,13.6,13.8,27.3,20.6,40.9c6.6-13.4,13.3-26.8,19.9-40.2
			C312.3,300.1,305.9,256.6,299.5,213z M285,341.3c4.8-38.9,9.6-77.8,14.5-116.6c4.4,38.8,8.8,77.7,13.3,116.5
			c-4.6,11.2-9.2,22.4-13.8,33.7C294.4,363.6,289.7,352.4,285,341.3z"/>
		<path class="st2" d="M312.8,341.2c-4.6,11.2-9.2,22.4-13.8,33.7c-4.7-11.2-9.3-22.4-14-33.5c4.8-38.9,9.6-77.8,14.5-116.6
			C304,263.5,308.4,302.3,312.8,341.2z"/>
		<path class="st2" d="M312.8,341.2c-4.6,11.2-9.2,22.4-13.8,33.7c-4.7-11.2-9.3-22.4-14-33.5c4.8-38.9,9.6-77.8,14.5-116.6
			C304,263.5,308.4,302.3,312.8,341.2z"/>
		<rect x="-20" y="430.5" class="st3" width="664.4" height="52.1"/>
		<text transform="matrix(1.071 0 0 1 78 468.464)" class="st4 st5">CROWNTEENS </text>
	</g>
</g>
</svg>
